<?xml version="1.0" encoding="UTF-8"?>
<svg id="Capa_1" data-name="Capa 1" xmlns="http://www.w3.org/2000/svg" viewBox="0 0 1920 1080">
  <defs>
    <style>
      .cls-1 {
        fill: #7668e7;
      }
    </style>
  </defs>
  <path class="cls-1" d="M989.81,602.69c1.93,4.11,1.24,9.62-.88,15.53-9.17,25.57-24.11,48.72-40.99,70-17.28,21.79-36.89,42.02-60.03,57.45-21.61,14.4-46.05,24.42-71.6,28.98-27.29,4.88-55.38,5.73-81.99,14.04-25.59,7.99-48.74,22.65-69.03,40.17-17.53,15.13-33.13,32.52-46.09,51.72-6.73,9.97-12.25,20.43-17.82,31.05-1.24,2.36-10.37,19.45-12.51,11.09-16.18-63.25-6.96-130.2,25.7-186.73,32.27-55.86,84.4-98.9,143.65-123.67,70.62-29.53,146.71-28.65,221.1-16.3,5.65.94,8.95,3.34,10.51,6.68Z"/>
  <path class="cls-1" d="M1096.74,807.5c-.88.55-1.76,1.1-2.63,1.63-91.94,56.33-201.71,59.37-298.46,13.45-1.83-.87-4.64-2.72-3.92-4.62.72-1.88,4.04-1.62,6.28-1.83,43.92-4.1,83.48-21.07,117.1-49.51,39.09-33.07,72.86-74.08,98.09-118.63,21.35-37.72,38.14-79.98,45.71-122.77,1.38-7.82,3.43-18.05,13.25-16.93,6.48.74,12.7,4.99,17.89,8.62,13.42,9.4,25.25,21.23,36.41,33.17,2.14,2.29,4.26,4.61,6.33,6.96,21.41,24.36,38.19,52.84,48.74,83.53,4.05,11.77,7.23,24.01,7.23,36.46,0,55.53-47.85,102.73-92.02,130.47Z"/>
  <path class="cls-1" d="M943.77,230.2s-.07-.01-.11-.02c13.82-39.01,32.36-76.42,42.26-116.7,1.01-4.14-4.39-6.63-6.92-3.22-39.59,53.56-82.06,105.8-136.1,145.5-.78.57-1.6,1.16-2.55,1.31-2.27.37-4.23-1.99-4.35-4.28-.54-10.19,7.01-24.82,9.52-34.86,3.3-13.2,6.2-26.51,8.53-39.91,4.65-26.78,6.27-53.34,5.56-80.47v-.11c-.2-4.49-6.45-5.25-7.62-.92-13.26,49.47-36.62,95.93-63.39,139.37-12.34,20.03-26.99,38.6-39.08,58.57-10.99,18.15-24.54,36.68-45.04,44.62-6.62,2.56-14.08,4.12-18.86,9.36-2.82,3.09-4.34,7.11-5.81,11.02-6.31,16.86-10.95,38.02-21.12,52.73-6.85,9.91-15.35,19.37-24.1,27.64-8.79,8.3-19.22,16.94-31.14,20.14-6.15,1.65-27.09,1.01-27.36-9.41-1.19-1.64-2.27-3.52-4.08-4.43-9.68-4.87-35.58,52.23-38.93,60.19-4.46,10.58-8.34,21.64-10.1,33.02-4.08,26.49,13.14,45.47,37.06,54.96,14.7,5.82,29.78,6.43,45.07,9.33,14.99,2.85,29.42,6.48,44.91,5.31,1.1-.08,2.24-.2,3.18-.78,2.12-1.33,2.17-4.66.63-6.63-1.55-1.97-4.14-2.81-6.62-3.14-2.55-.34-5.46-.41-7.13-2.37-.94-1.1-1.26-2.59-1.55-4.01-1.06-5.16-2.11-10.32-3.17-15.48-.22-1.05-.43-2.17-.05-3.18.4-1.07,1.37-1.8,2.31-2.45,43.96-30.5,102.22-19.46,152.11-17.27,3.49.15,5.42-4.01,3.01-6.56-8.29-8.79-20.66-24.01-3.26-34.26,25.49-15.01,78.92.9,102.41,6.2,3.61.83,6.2-3.43,3.81-6.28-22.08-26.48.43-56.75,34.39-63.98.27-.06.52-.06.79-.1,3.49-.55,16.63-2.67,31.57-3.77,18.63-1.38,38.97,1.62,57.27,4.94,18.62,3.38,36.9,8.73,54.18,16.48,46.37,20.77,83.49,59.3,107.32,103.71,11.04,20.58,19.66,42.38,27.02,64.51,3.21,9.64,8.5-2.44,9.91-6.63,2.46-7.29,4.1-14.88,5.63-22.41,2.59-12.77,4.9-25.76,6.2-38.74.02-.21.04-.41.06-.62,5.22-63.55-12.08-128.33-46.15-182.01-42.65-67.21-110.14-117.15-185.76-141.22-17.85-5.68-35.96-9.23-54.34-12.68ZM608.2,508.15c-12.06-.01-20.67,4.81-31.01,10.17-3.28,1.69-6.88-1.73-5.33-5.09,5.49-11.87,23.73-31.51,34.68-26.62,1.1.49,1.86,1.48,2.17,2.64l3.36,14.09c.61,2.49-1.32,4.8-3.87,4.81ZM769.22,373.28c-14.3,29.77-31.47,44.34-65.32,52-2.52.58-5.05-1.47-4.73-4.01.75-5.79,7.96-9,10.45-13.45,5.28-9.36,5.44-17.72,16.14-24.89,9.9-6.63,25.72-11.39,38.9-15.09,3.19-.9,6,2.43,4.55,5.43Z"/>
</svg>